<?xml version="1.0" standalone="no"?>
<!DOCTYPE svg PUBLIC "-//W3C//DTD SVG 20010904//EN"
 "http://www.w3.org/TR/2001/REC-SVG-20010904/DTD/svg10.dtd">
<svg version="1.0" xmlns="http://www.w3.org/2000/svg"
 width="260.000000pt" height="260.000000pt" viewBox="0 0 260.000000 260.000000"
 preserveAspectRatio="xMidYMid meet">
<metadata>
Created by potrace 1.11, written by Peter Selinger 2001-2013
</metadata>
<g transform="translate(0.000000,260.000000) scale(0.100000,-0.100000)"
fill="#000000" stroke="none">
<path d="M258 1647 c-95 -27 -183 -103 -227 -197 -22 -47 -26 -69 -26 -145 0
-79 4 -97 29 -150 37 -74 97 -134 173 -171 51 -25 69 -29 148 -29 76 0 99 5
147 27 71 33 138 101 175 176 24 49 27 69 27 147 0 79 -3 97 -28 149 -59 121
-167 195 -298 202 -43 2 -92 -2 -120 -9z m220 -96 c166 -86 201 -307 71 -439
-52 -53 -105 -75 -185 -78 -113 -5 -203 48 -257 151 -31 57 -31 183 0 241 31
57 79 103 137 130 66 31 170 28 234 -5z"/>
<path d="M2135 1643 c-179 -64 -280 -253 -231 -429 82 -288 454 -357 626 -116
130 181 64 437 -138 530 -75 34 -185 40 -257 15z m231 -91 c201 -103 203 -387
3 -493 -61 -33 -185 -34 -245 -2 -127 68 -184 213 -135 343 30 81 97 144 181
171 43 14 152 4 196 -19z"/>
<path d="M803 1313 c0 -240 3 -340 11 -345 6 -4 25 -8 42 -8 l30 0 1 148 c1
81 2 152 2 158 1 7 59 10 179 10 l177 -1 1 -145 c1 -80 2 -150 3 -156 0 -7 19
-12 41 -12 l40 -1 0 345 0 345 -42 -3 -42 -3 -1 -145 0 -145 -179 0 -180 0 1
148 0 147 -42 0 -42 0 0 -337z"/>
<path d="M1413 1608 c7 -54 100 -251 147 -313 4 -5 7 -74 7 -153 1 -161 8
-182 68 -182 58 0 65 19 68 181 l2 145 52 80 c55 84 78 133 67 143 -4 3 -9 1
-11 -5 -9 -26 -31 -47 -42 -40 -8 5 -2 19 19 46 27 34 34 38 50 27 30 -18 44
3 35 52 -12 71 -33 55 -139 -104 -53 -80 -100 -145 -105 -145 -4 0 -17 18 -30
40 -41 73 -157 245 -176 260 -17 14 -18 13 -12 -32z"/>
</g>
</svg>
